<?xml version="1.0" encoding="UTF-8"?>
<svg xmlns="http://www.w3.org/2000/svg" width="28" height="49" viewBox="0 0 28 49" fill="none">
  <path fill-rule="evenodd" clip-rule="evenodd" d="M14.4621 0.156666C14.0624 0.638392 14.5052 2.5466 15.3183 3.84533C16.4562 5.66316 16.3889 5.46048 16.1322 6.29842C15.8024 7.37513 15.6549 7.65176 15.0681 8.29218C14.4265 8.99254 12.6925 11.146 12.4218 11.5787C12.0479 12.1763 11.3946 13.6696 11.2971 14.1494C11.2439 14.4114 11.1041 14.8101 10.9865 15.0355C10.7242 15.538 10.6942 19.633 10.9457 20.601C11.0379 20.9554 11.1845 21.5717 11.2715 21.9704C11.3586 22.3692 11.5352 22.8878 11.6641 23.123C11.793 23.3583 11.8984 23.671 11.8984 23.8178C11.8984 24.1 12.6807 25.8611 12.8671 25.9982C12.9272 26.0426 13.0299 26.2958 13.0948 26.5612C13.1599 26.8265 13.2971 27.1449 13.3998 27.2685C13.5699 27.4736 13.7272 27.9463 14.1559 29.5427C14.2392 29.8529 14.3043 30.6866 14.3006 31.3955C14.2944 32.5278 14.2358 32.7824 13.8171 33.49C13.5549 33.933 13.2538 34.495 13.148 34.7386C13.0421 34.9822 12.8971 35.1816 12.8257 35.1816C12.7544 35.1816 12.6214 35.3447 12.5306 35.5441C12.4395 35.7436 12.189 36.1966 11.9739 36.5511C11.7587 36.9055 11.5404 37.3043 11.4887 37.4372C10.9836 38.7374 10.7852 39.4224 10.6955 40.1761C10.6375 40.6635 10.5347 41.4827 10.4672 41.9965C10.2139 43.9246 11.0864 48.2333 11.7542 48.3524C11.8777 48.3745 12.0825 48.3258 12.2092 48.2445C12.4035 48.1196 12.4085 47.9501 12.2407 47.1571C12.1315 46.6406 11.9581 46.0003 11.8557 45.7345C11.7532 45.4687 11.6446 44.261 11.6145 43.0505C11.5715 41.3303 11.614 40.7194 11.8094 40.2517C11.947 39.9227 12.0595 39.4772 12.0595 39.262C12.0595 38.927 12.3148 38.3187 12.8929 37.2761C12.9665 37.1432 13.0953 36.877 13.1789 36.6845C13.2625 36.4921 13.5886 35.9759 13.9036 35.5375C14.2185 35.0992 14.4762 34.6822 14.4762 34.6111C14.4762 34.5401 14.5733 34.3675 14.6921 34.2277C14.8108 34.0877 15.0739 33.5191 15.2766 32.9639C15.5819 32.1278 15.6257 31.7836 15.5323 30.9578C15.3929 29.7264 15.0244 28.1961 14.6869 27.4483C14.5471 27.1381 14.3039 26.5944 14.1467 26.2399C13.9896 25.8855 13.6964 25.233 13.4952 24.7899C12.4484 22.4847 12.1777 21.4599 12.0482 19.3121C11.7651 14.6171 12.2672 13.2353 15.7066 9.24259C16.2028 8.66661 16.8218 7.74795 17.0822 7.20113L17.5557 6.20707L18.5534 6.65899C19.1022 6.90759 19.688 7.15715 19.8554 7.21354C20.1175 7.30199 20.1476 7.43249 20.0735 8.15846C19.9338 9.52582 20.1826 10.5631 20.9503 11.8151C21.3328 12.4387 21.7629 13.1655 21.9063 13.43C22.0496 13.6946 22.2398 14.0025 22.3291 14.1143C22.4184 14.2261 22.8003 14.9339 23.178 15.6871C23.5556 16.4403 23.9368 17.1978 24.0251 17.3705C24.1134 17.5432 24.3573 18.3609 24.5671 19.1876C24.8964 20.4856 24.9485 21.0751 24.9485 23.5133C24.9485 25.0657 24.8368 27.2987 24.7003 28.4757C24.5639 29.6526 24.4733 31.2985 24.499 32.1334L24.5457 33.6511H25.0218C25.6488 33.6511 25.7165 33.3791 25.7431 30.7511C25.7547 29.5991 25.8684 27.8953 25.9957 26.9649C26.5497 22.9158 26.113 18.9649 24.8384 16.4939C24.6332 16.0958 24.4651 15.7225 24.4651 15.664C24.4651 15.5622 23.1382 13.2573 21.9377 11.2742C21.4905 10.5355 21.3452 10.0992 21.2814 9.30542C21.1789 8.02957 21.4694 7.47035 22.2345 7.47035C23.0178 7.47035 23.7135 6.93336 24.2152 5.94172C24.6243 5.13326 24.675 4.84519 24.749 2.90604C24.8357 0.633558 24.7158 0.059193 24.1545 0.059193C23.729 0.059193 23.6599 0.358217 23.6576 2.20714C23.6555 4.0754 23.3633 5.39555 22.8231 5.97749C22.4794 6.34772 22.3718 6.37108 21.404 6.28634C19.7826 6.14456 18.0214 5.34528 17.0316 4.30208C16.2429 3.4709 15.604 2.20811 15.604 1.48069C15.604 1.15347 15.5371 0.709603 15.4552 0.494519C15.278 0.0284212 14.7248 -0.159758 14.4621 0.156666ZM17.7951 13.0448C17.7408 13.1865 17.8004 13.4947 17.9278 13.7296C18.4793 14.7459 18.716 15.3296 18.8526 16.0093C18.9327 16.408 19.0546 19.1268 19.1236 22.051C19.2407 27.0232 19.2713 27.4147 19.5965 28.0927C20.1075 29.1583 20.8549 30.4891 21.1175 30.8008C21.4145 31.1534 22.5431 33.5077 22.7154 34.1344C23.4479 36.7958 23.8207 38.433 23.8207 38.9874C23.8207 39.3532 23.9193 39.9333 24.0398 40.2766C24.1603 40.6201 24.3119 41.3282 24.3765 41.8502C24.5015 42.8598 25.2261 44.6051 26.1552 46.1345C26.4661 46.6465 26.7207 47.203 26.7207 47.3711C26.7207 47.8705 27.1956 48.4168 27.5822 48.3617C28.2087 48.2725 28.1296 47.4524 27.3518 45.9762C25.9019 43.2247 25.461 41.9429 25.1904 39.6928C24.7751 36.239 23.595 32.547 22.2472 30.4847C21.6244 29.5316 21.0346 28.446 20.6658 27.5739C20.2828 26.668 20.2762 26.5708 20.2762 21.8008C20.2762 17.4422 20.2427 16.8181 19.9469 15.6592C19.6411 14.4618 19.0178 13.1887 18.6008 12.9103C18.2982 12.7084 17.8987 12.775 17.7951 13.0448ZM16.0681 32.9844C15.9176 33.3147 16.0562 33.6788 17.1142 35.7323C17.7849 37.0343 18.4688 38.295 18.6343 38.5337C18.7996 38.7723 18.981 39.0955 19.0372 39.2515C19.0936 39.4076 19.5414 40.1516 20.0324 40.905C21.6771 43.4282 22.444 44.9101 22.8255 46.3022C23.3066 48.0572 23.3621 48.1512 23.9188 48.1512C24.334 48.1512 24.3821 48.0986 24.362 47.6678C24.2868 46.0522 23.3475 43.9817 21.1095 40.4983C20.7394 39.9224 20.3716 39.3061 20.292 39.1289C20.2124 38.9517 19.9733 38.5529 19.7606 38.2428C19.548 37.9326 18.8396 36.6054 18.1863 35.2933C16.8618 32.6333 16.4383 32.1717 16.0681 32.9844Z" fill="#FF61E5"></path>
  <path d="M8.8745 4.35975C8.9619 4.4746 8.96227 4.63357 8.87541 4.74882L6.55666 7.82544C6.49577 7.90622 6.40049 7.95372 6.29933 7.95372H5.48173C5.21977 7.95372 5.06728 7.65772 5.21937 7.44443L6.48394 5.67093C6.63603 5.45763 6.48354 5.16163 6.22158 5.16163H1.2889C1.11094 5.16163 0.966675 5.01737 0.966675 4.83941V4.2849C0.966675 4.10694 1.11094 3.96268 1.2889 3.96268H6.21943C6.48181 3.96268 6.63419 3.66585 6.48126 3.45265L5.22204 1.69704C5.06912 1.48383 5.2215 1.18701 5.48388 1.18701H6.30027C6.4009 1.18701 6.49575 1.23402 6.55669 1.3141L8.8745 4.35975Z" fill="#FF61E5"></path>
  <path d="M7.90782 31.4266C7.99523 31.5415 7.9956 31.7005 7.90873 31.8157L5.58998 34.8923C5.5291 34.9731 5.43381 35.0206 5.33266 35.0206H4.51506C4.25309 35.0206 4.10061 34.7246 4.2527 34.5113L5.51726 32.7378C5.66935 32.5245 5.51687 32.2285 5.2549 32.2285H0.322224C0.144264 32.2285 0 32.0843 0 31.9063V31.3518C0 31.1738 0.144265 31.0296 0.322224 31.0296H5.25275C5.51513 31.0296 5.66751 30.7327 5.51459 30.5195L4.25537 28.7639C4.10245 28.5507 4.25483 28.2539 4.51721 28.2539H5.3336C5.43422 28.2539 5.52907 28.3009 5.59001 28.381L7.90782 31.4266Z" fill="#FF61E5"></path>
  <path fill-rule="evenodd" clip-rule="evenodd" d="M9.80978 11.9874C10.1258 12.1512 10.2492 12.5401 10.0855 12.8561C9.67393 13.6503 9.40486 14.4079 9.34185 15.101C9.29678 15.5967 9.25556 16.0504 9.2244 16.4835C9.19885 16.8385 8.89036 17.1056 8.53536 17.08C8.18036 17.0545 7.91328 16.746 7.93882 16.391C7.97094 15.9446 8.01321 15.4797 8.05791 14.988L8.05824 14.9843C8.14218 14.061 8.4891 13.1353 8.94109 12.2631C9.10485 11.9471 9.49378 11.8237 9.80978 11.9874ZM8.52449 18.5891C8.87824 18.5499 9.19681 18.8048 9.23604 19.1586C9.32195 19.9333 9.49841 20.7633 9.81961 21.7569C9.92908 22.0956 9.74329 22.4589 9.40463 22.5684C9.06597 22.6778 8.70267 22.492 8.5932 22.1534C8.24888 21.0882 8.05171 20.1727 7.955 19.3006C7.91577 18.9469 8.17073 18.6283 8.52449 18.5891Z" fill="#FF61E5"></path>
  <path d="M8.50642 37.9452C8.84753 38.0468 9.04168 38.4057 8.94008 38.7468C8.56619 40.002 8.4227 41.2816 8.43235 42.5036C8.43516 42.8595 8.14892 43.1503 7.79301 43.1531C7.4371 43.1559 7.1463 42.8697 7.14349 42.5138C7.13301 41.1859 7.28857 39.7762 7.70481 38.3788C7.80642 38.0377 8.16531 37.8436 8.50642 37.9452Z" fill="#FF61E5"></path>
  <path d="M11.2545 31.09C10.9016 31.0436 10.5779 31.2921 10.5316 31.645C10.415 32.5318 10.2025 33.3072 9.85777 33.9118C9.61125 34.3442 9.38563 34.7399 9.16349 35.1131C8.98143 35.4189 9.08176 35.8144 9.38759 35.9965C9.69342 36.1785 10.0889 36.0782 10.271 35.7724C10.4999 35.3879 10.7311 34.9823 10.9757 34.5533L10.9757 34.5533L10.9775 34.5501C11.4366 33.7448 11.6814 32.787 11.8095 31.813C11.8558 31.4601 11.6074 31.1364 11.2545 31.09Z" fill="#FF61E5"></path>
  <path d="M9.56611 24.2521C9.25379 24.4228 9.13898 24.8144 9.30967 25.1267C9.73861 25.9115 10.0243 26.663 10.1026 27.3546C10.1586 27.8492 10.2098 28.3018 10.2505 28.7342C10.2839 29.0885 10.5982 29.3487 10.9526 29.3154C11.3069 29.282 11.5671 28.9677 11.5338 28.6133C11.4918 28.1678 11.4393 27.7039 11.3837 27.2133L11.3837 27.2133L11.3833 27.2096C11.2791 26.2884 10.9118 25.3706 10.4407 24.5086C10.27 24.1962 9.87843 24.0814 9.56611 24.2521Z" fill="#FF61E5"></path>
  <path d="M13.1009 5.21028C12.7555 5.12439 12.4058 5.33477 12.32 5.68017C12.1041 6.54815 11.8055 7.29463 11.3948 7.8565C11.1011 8.25836 10.8323 8.62611 10.5695 8.97181C10.3541 9.25515 10.4091 9.65946 10.6925 9.87486C10.9758 10.0903 11.3801 10.0352 11.5955 9.75183C11.8664 9.39558 12.1419 9.01865 12.4332 8.62003L12.4332 8.62003L12.4354 8.61706C12.9824 7.86862 13.3337 6.94454 13.5708 5.9912C13.6567 5.6458 13.4463 5.29617 13.1009 5.21028Z" fill="#FF61E5"></path>
</svg>
