<?xml version="1.0" encoding="UTF-8"?>
<svg xmlns="http://www.w3.org/2000/svg" width="27" height="46" viewBox="0 0 27 46" fill="none">
  <path fill-rule="evenodd" clip-rule="evenodd" d="M8.35927 0.212104C8.09522 0.481424 8.20345 1.94334 8.54436 2.70959C8.93803 3.59481 9.05158 3.8359 9.24693 4.20112C9.45908 4.59773 9.39298 5.29706 9.1167 5.57885C9.02625 5.67111 8.85969 5.91396 8.74651 6.1185C8.6332 6.32305 8.37595 6.74562 8.17479 7.05753C7.97351 7.36945 7.72157 7.79479 7.61469 8.00274C7.50793 8.21068 7.28663 8.60767 7.12291 8.88493C4.44411 13.4231 4.63736 17.7323 7.73899 22.6219C8.00279 23.0378 8.56228 23.9168 8.98251 24.5753C10.4069 26.8079 10.8361 27.5351 11.2501 28.4192C11.4773 28.9044 11.7429 29.4549 11.8401 29.6425C12.3669 30.6587 12.3068 33.9373 11.7415 35.0337C11.617 35.2753 11.515 35.6329 11.515 35.8283C11.515 36.0238 11.3912 36.45 11.2398 36.7754C10.8218 37.6742 10.8213 41.6311 11.2391 42.4347C11.3908 42.7266 11.515 43.1527 11.515 43.3818C11.515 43.6109 11.6218 44.0015 11.7524 44.2499C11.8829 44.4983 12.0492 44.9271 12.122 45.2029C12.3533 46.0785 13.2015 46.2891 13.3971 45.5193C13.4819 45.1856 13.4401 44.9619 13.1887 44.4016C13.0157 44.0163 12.8742 43.5951 12.8742 43.4656C12.8742 43.336 12.7646 42.9359 12.6307 42.5763C11.8701 40.5348 12.0042 38.52 13.1486 34.7947C13.4452 33.8297 13.6453 31.5646 13.4988 30.8323C13.355 30.1134 12.7646 28.4605 12.5694 28.2301C12.4813 28.1262 12.3667 27.8993 12.3148 27.726C12.2629 27.5527 11.9692 27.014 11.6621 26.5288C11.355 26.0436 10.8347 25.2212 10.506 24.7014C10.1772 24.1815 9.79715 23.6237 9.66135 23.4619C9.52556 23.3001 9.41448 23.1152 9.41448 23.051C9.41448 22.9869 9.22234 22.6556 8.98745 22.3147C8.75256 21.9739 8.47356 21.5066 8.36742 21.2762C8.26128 21.0459 8.09719 20.7158 8.00267 20.5425C7.66275 19.9189 7.19038 18.8343 7.19038 18.6773C7.19038 18.5893 7.10314 18.3813 6.99651 18.2154C6.53501 17.4969 6.4925 13.7059 6.93436 12.6658C7.05224 12.3885 7.18988 11.9935 7.2403 11.788C7.41476 11.0771 8.39349 8.9889 8.7533 8.55991C8.84511 8.45051 8.92036 8.30873 8.92036 8.24484C8.92048 8.18107 9.13844 7.80853 9.40484 7.41722C9.67112 7.0259 9.97755 6.53124 10.0855 6.31826C10.3783 5.74093 10.7318 5.58894 11.0633 5.8977C11.2098 6.03419 11.5174 6.25172 11.7468 6.38115C11.9763 6.51058 12.2959 6.69042 12.4573 6.7809C12.8284 6.98885 12.8253 7.26813 12.4396 8.38082C12.0927 9.38211 12.0602 9.79195 12.2998 10.1486C12.3916 10.2853 12.5071 10.5664 12.5564 10.7732C12.684 11.3073 13.4845 12.247 15.7822 14.5598C17.5948 16.3846 17.9705 16.8559 18.4403 17.8959C18.5186 18.0692 18.716 18.5002 18.8793 18.8537C19.0424 19.2072 19.1758 19.5824 19.1758 19.6874C19.1758 19.7923 19.287 20.0225 19.4229 20.1988C19.5589 20.375 19.6701 20.6253 19.6701 20.7548C19.6701 20.8845 19.7673 21.1308 19.8863 21.302C20.0053 21.4734 20.1674 21.8405 20.2466 22.1178C20.5529 23.1899 20.8041 23.9003 21.0355 24.3482C21.168 24.6046 21.2764 24.9541 21.2764 25.1247C21.2764 25.2955 21.3829 25.7379 21.513 26.108C22.3601 28.5166 23.0853 34.8546 22.5644 35.2956C22.2976 35.5215 22.1937 35.3267 22.0998 34.4251C22.059 34.0331 21.9126 33.4876 21.7746 33.2131C21.6364 32.9385 21.5235 32.559 21.5235 32.3699C21.5235 32.1806 21.4622 31.9873 21.3873 31.94C21.3124 31.8927 21.1742 31.6663 21.08 31.4365C20.8001 30.7532 19.918 29.4539 19.1652 28.6157C18.4432 27.812 17.0753 26.0357 17.0753 25.902C17.0753 25.8132 16.9999 25.6767 16.9078 25.5988C16.7976 25.5054 16.7178 25.0362 16.6739 24.2251C16.6374 23.5476 16.5233 22.7881 16.4206 22.5374C16.318 22.2866 16.1947 21.6359 16.1468 21.0914C16.0989 20.5469 15.9813 19.9282 15.8854 19.7166C15.7895 19.505 15.66 19.0122 15.5977 18.6214C15.5353 18.2306 15.4029 17.7799 15.3034 17.6199C15.2039 17.4597 15.0845 17.1427 15.038 16.9155C14.6519 15.027 11.5973 11.5536 11.1069 12.4452C10.8529 12.9071 10.9091 13.2409 11.2971 13.5734C11.8976 14.088 13.1213 15.3993 13.1213 15.5283C13.1213 15.5902 13.2603 15.8495 13.4302 16.1044C13.6001 16.3595 13.7391 16.6841 13.7391 16.8259C13.7391 16.9677 13.8208 17.2025 13.9205 17.3478C14.0202 17.493 14.1387 17.8601 14.1838 18.1634C14.2289 18.4668 14.3637 18.9419 14.4832 19.2192C14.6027 19.4964 14.741 20.0919 14.7905 20.5425C14.8399 20.993 14.9553 21.5601 15.0468 21.8027C15.1383 22.0453 15.2645 22.934 15.3271 23.7775C15.4052 24.8293 15.5036 25.4023 15.6404 25.6015C15.75 25.7611 15.8397 25.9725 15.8397 26.0712C15.8397 26.3232 16.5946 27.4544 17.2947 28.2514C18.4336 29.548 19.1758 30.471 19.1758 30.5908C19.1758 30.6572 19.287 30.8143 19.4229 30.9397C19.5589 31.0651 19.6701 31.2365 19.6701 31.3203C19.6701 31.4043 19.7818 31.6176 19.9183 31.7947C20.0548 31.9718 20.2005 32.3055 20.2423 32.5364C20.2839 32.7673 20.3876 33.0708 20.4726 33.211C20.5577 33.3511 20.6668 33.7198 20.7153 34.0302C20.7637 34.3406 20.9046 34.8214 21.0282 35.0986C21.1521 35.3759 21.2917 35.9948 21.3386 36.4741C21.3856 36.9532 21.5014 37.6054 21.5959 37.9234C21.6905 38.2412 21.7685 38.6205 21.7692 38.7662C21.7716 39.2163 22.5374 41.6352 22.7782 41.9526C22.9037 42.118 23.0062 42.3045 23.0062 42.3673C23.0062 42.43 23.1094 42.6351 23.2357 42.8228C23.7251 43.5515 23.9407 43.9494 24.2657 44.7243C24.6637 45.6735 24.9251 46 25.2865 46C26.1612 46 25.9995 44.9218 24.8515 43.1014C24.6549 42.7895 24.4333 42.3926 24.3592 42.2194C24.2852 42.0463 24.1499 41.8194 24.0586 41.7153C23.8269 41.451 23.3868 40.1701 23.1927 39.1945C23.103 38.744 22.9341 37.9968 22.8172 37.5341C22.6772 36.98 22.6348 36.5283 22.6932 36.2109L22.7818 35.7291L22.9598 36.0756C23.4316 36.9942 23.9977 36.1656 23.9901 34.567C23.9821 32.8658 23.6532 29.1969 23.4602 28.655C23.3582 28.3688 23.2363 27.8016 23.1892 27.3947C23.1421 26.9878 23.0251 26.5276 22.9291 26.3722C22.8331 26.2167 22.7212 25.8197 22.6803 25.49C22.6394 25.1602 22.5314 24.768 22.4401 24.6186C22.3489 24.469 22.2086 24.072 22.1286 23.7364C22.0485 23.4006 21.9136 23.041 21.8287 22.937C21.7439 22.833 21.6346 22.5494 21.5856 22.3068C21.5368 22.0642 21.3916 21.6889 21.263 21.4728C21.1344 21.2567 21.0292 20.9665 21.0292 20.8282C21.0292 20.6897 20.918 20.4323 20.7821 20.256C20.6462 20.0798 20.535 19.8479 20.535 19.7408C20.535 19.4865 20.2734 18.9041 20.1591 18.9041C20.1102 18.9041 20.0071 18.6489 19.93 18.337C19.8531 18.0251 19.7375 17.7699 19.6733 17.7699C19.609 17.7699 19.4895 17.5424 19.4079 17.2642C19.3262 16.9862 19.185 16.6956 19.094 16.6187C19.0031 16.5417 18.9287 16.4016 18.9287 16.3073C18.9287 16.1096 18.5471 15.6579 17.524 14.6443C14.4526 11.6013 14.0501 11.1384 13.7303 10.2804C13.4736 9.59144 13.4156 8.7589 13.6157 8.63288C13.6836 8.59003 13.8014 8.30306 13.8774 7.9953C13.9675 7.63045 14.0857 7.43121 14.2172 7.42301C14.328 7.41608 14.9306 7.40159 15.5563 7.39088L16.694 7.37134L17.1935 6.87379C17.4683 6.60018 17.6936 6.31687 17.6942 6.24428C17.6948 6.17169 17.8321 5.82877 17.9993 5.48219C18.6155 4.2044 18.4269 0 17.7534 0C17.2033 0 17.0548 0.445129 17.0943 1.97535C17.1822 5.37129 16.8644 6.08687 15.2796 6.06267C14.0542 6.0439 13.1878 5.81402 12.3799 5.29353C12.278 5.22787 12.0119 5.08004 11.7885 4.96498C10.7093 4.40945 9.77108 2.76416 9.47749 0.912942C9.3527 0.125145 8.79012 -0.22748 8.35927 0.212104ZM5.96687 5.45257C5.80365 5.53815 5.6104 5.72164 5.5375 5.86027C5.30459 6.30301 4.78612 7.115 4.62648 7.28703C4.23022 7.71426 4.55939 8.50433 5.09935 8.42203C5.44693 8.36898 6.81883 6.37106 6.81932 5.91699C6.81994 5.34835 6.49893 5.17342 5.96687 5.45257ZM3.4744 9.90437C3.17748 10.2693 2.61861 11.8559 2.61861 12.3339C2.61861 13.5781 3.75056 13.2166 3.99261 11.8952C4.05279 11.5672 4.1887 11.2008 4.29484 11.0812C4.53258 10.8133 4.56421 10.1582 4.35205 9.89756C4.14743 9.64614 3.68161 9.64979 3.4744 9.90437ZM2.23211 14.8278C1.7092 15.4711 2.14364 17.924 2.80334 18.0527C3.4036 18.1696 3.50257 17.9019 3.43127 16.3547C3.35454 14.688 2.85894 14.0568 2.23211 14.8278ZM3.23753 19.7219C3.05602 19.945 3.16364 20.702 3.40594 20.9072C3.49553 20.9831 3.66938 21.2723 3.79207 21.5499C3.91489 21.8276 4.06242 22.0548 4.12013 22.0548C4.17771 22.0548 4.22491 22.13 4.22491 22.2219C4.22491 22.5399 4.7598 22.921 5.10862 22.8515C5.61065 22.7516 5.64722 22.2489 5.20327 21.5507C5.00495 21.2388 4.72891 20.7284 4.58991 20.4164C4.21144 19.567 3.61353 19.2599 3.23753 19.7219ZM23.7274 23.625C23.6183 23.8691 23.6286 23.9966 23.7756 24.2255C23.8783 24.3853 24.0035 24.7137 24.0538 24.9553C24.1998 25.6573 24.5994 26.5228 24.8515 26.6834C25.1841 26.8953 25.7897 26.3305 25.6656 25.924C25.619 25.7715 25.5096 25.3599 25.4223 25.0095C25.0609 23.5569 24.1062 22.7771 23.7274 23.625ZM5.78289 24.1385C5.55986 24.366 5.67576 24.7844 6.13084 25.394C6.28628 25.6022 6.44913 25.886 6.49275 26.0247C6.6241 26.4428 7.30529 27.0959 7.60999 27.0959C8.17602 27.0959 8.35284 26.694 8.03269 26.1351C6.87628 24.1165 6.30321 23.6078 5.78289 24.1385ZM25.2276 28.1705C24.9026 28.5698 25.1994 31.0645 25.6132 31.4123C26.2235 31.9254 26.7465 31.4795 26.5777 30.5901C26.5221 30.2972 26.4743 29.7853 26.4714 29.4526C26.4612 28.3175 25.7253 27.5588 25.2276 28.1705ZM8.45342 28.3786C8.24905 28.587 8.26919 29.3721 8.48654 29.6648C8.58353 29.7954 8.73032 30.2103 8.81298 30.5867C9.02884 31.5704 9.62824 31.9294 10.1327 31.377C10.474 31.0034 9.58067 28.3562 9.11311 28.3562C9.01822 28.3562 8.86488 28.3265 8.77246 28.2904C8.68003 28.2542 8.53645 28.2939 8.45342 28.3786ZM14.3318 31.3236C14.1946 31.6309 14.4559 32.3303 15.1067 33.3973C15.1701 33.5012 15.2809 33.7281 15.353 33.9014C15.425 34.0747 15.6431 34.5 15.8376 34.8466C16.032 35.1931 16.2768 35.663 16.3816 35.8907C16.4864 36.1184 16.6575 36.3918 16.7619 36.4983C16.8663 36.6048 16.9517 36.8014 16.9517 36.935C16.9517 37.0687 17.049 37.2821 17.1679 37.4092C17.4203 37.6788 17.73 38.1947 18.0131 38.8164C18.1236 39.059 18.287 39.3004 18.3763 39.3528C18.4656 39.4052 18.5752 39.6176 18.6198 39.8247C18.6644 40.0317 18.7669 40.2441 18.8476 40.2965C18.9283 40.3489 19.1787 40.7604 19.4039 41.211C19.629 41.6615 19.8851 42.0876 19.9727 42.1579C20.0603 42.2283 20.1706 42.4654 20.2178 42.6848C20.2651 42.9044 20.3788 43.1475 20.4704 43.225C20.562 43.3026 20.6751 43.6326 20.7216 43.9584C20.8469 44.8378 21.4012 45.9275 21.7487 45.9782C22.1991 46.0437 22.4254 45.766 22.3424 45.249C22.18 44.2365 22.0118 43.5701 21.8384 43.2507C21.7375 43.0646 21.5676 42.7138 21.4611 42.4712C21.1715 41.8116 20.8834 41.2963 20.6992 41.1085C20.6089 41.0162 20.535 40.8825 20.535 40.8113C20.535 40.7401 20.3078 40.3235 20.0301 39.8855C19.5003 39.05 19.1915 38.5011 18.8968 37.8712C18.7994 37.6633 18.6278 37.4153 18.5154 37.3202C18.4029 37.2251 18.3109 37.0447 18.3109 36.9196C18.3109 36.7945 18.2229 36.6021 18.1153 36.4925C17.9133 36.2864 17.3118 35.1705 16.5148 33.5233C16.2632 33.0034 16.0078 32.493 15.947 32.389C15.8862 32.2851 15.7314 31.967 15.6029 31.6823C15.3861 31.2017 15.111 31.0097 14.6323 31.0045C14.5459 31.0035 14.4107 31.1472 14.3318 31.3236ZM9.37197 33.162C9.08902 33.3297 8.79667 34.0212 8.79667 34.5228C8.79667 34.7304 8.69004 35.176 8.55981 35.5131C8.29575 36.1965 8.33628 36.3454 8.83918 36.5405C9.38865 36.7535 9.81828 36.2256 10.0145 35.0959C10.099 34.6091 10.217 34.1305 10.2766 34.0321C10.409 33.8135 10.1277 33.2095 9.84138 33.0974C9.60205 33.0038 9.64974 32.9972 9.37197 33.162ZM25.7829 33.3263C25.5107 33.6039 25.4824 33.734 25.4886 34.6811C25.4923 35.2573 25.46 35.8211 25.417 35.9342C25.3352 36.1491 25.8625 36.674 26.16 36.674C26.9159 36.674 27.3278 34.0128 26.6747 33.3468C26.2776 32.9417 26.1626 32.939 25.7829 33.3263Z" fill="#FF61E5"></path>
  <path d="M5.95048 33.3444C6.01625 33.4292 6.01653 33.5467 5.95116 33.6319L4.20635 35.9052C4.16054 35.9649 4.08884 36 4.01272 36H3.39749C3.20037 36 3.08563 35.7813 3.20007 35.6237L4.15163 34.3132C4.26608 34.1556 4.15134 33.9369 3.95421 33.9369H0.242467C0.108556 33.9369 0 33.8303 0 33.6988V33.2891C0 33.1576 0.108556 33.051 0.242468 33.051H3.95259C4.15003 33.051 4.26469 32.8316 4.14962 32.6741L3.20208 31.3769C3.08701 31.2193 3.20168 31 3.39911 31H4.01343C4.08915 31 4.16052 31.0347 4.20638 31.0939L5.95048 33.3444Z" fill="#FF61E5"></path>
  <path d="M21.0413 9.8755C20.9865 9.94339 20.9862 10.0374 21.0407 10.1055L22.4947 11.9242C22.5329 11.9719 22.5926 12 22.6561 12H23.1688C23.333 12 23.4286 11.825 23.3333 11.6989L22.5403 10.6506C22.4449 10.5245 22.5406 10.3495 22.7048 10.3495H25.7979C25.9095 10.3495 26 10.2642 26 10.159V9.83125C26 9.72606 25.9095 9.64078 25.7979 9.64078H22.7062C22.5416 9.64078 22.4461 9.46532 22.542 9.33928L23.3316 8.30149C23.4275 8.17546 23.3319 8 23.1674 8H22.6555C22.5924 8 22.5329 8.02779 22.4947 8.07512L21.0413 9.8755Z" fill="#FF61E5"></path>
</svg>
