<?xml version="1.0" standalone="no"?>
<!DOCTYPE svg PUBLIC "-//W3C//DTD SVG 20010904//EN"
 "http://www.w3.org/TR/2001/REC-SVG-20010904/DTD/svg10.dtd">
<svg version="1.0" xmlns="http://www.w3.org/2000/svg"
 width="64.000000pt" height="64.000000pt" viewBox="0 0 64.000000 64.000000"
 preserveAspectRatio="xMidYMid meet">

<g transform="translate(0.000000,64.000000) scale(0.100000,-0.100000)"
fill="#000000" stroke="none">
<path d="M0 320 l0 -320 320 0 320 0 0 320 0 320 -320 0 -320 0 0 -320z m171
199 c-23 -34 -41 -57 -41 -51 0 5 16 33 35 61 19 28 36 63 36 78 l2 28 4 -28
c3 -20 -7 -44 -36 -88z m342 6 c15 -22 27 -44 27 -50 0 -22 -71 98 -75 127
l-5 33 13 -35 c6 -19 24 -53 40 -75z m54 -200 c-3 -52 -15 -95 -46 -167 -22
-54 -42 -110 -42 -125 -2 -28 -2 -28 -6 -3 -2 15 16 76 43 145 44 113 46 123
42 195 -4 54 -3 68 4 50 5 -14 8 -56 5 -95z m-432 85 c18 -20 18 -21 -2 -41
l-21 -21 -22 22 c-21 21 -21 23 -4 41 22 24 27 24 49 -1z m220 6 c13 17 13 15
0 -18 -19 -47 -10 -89 24 -121 32 -30 71 -40 106 -27 14 5 24 6 21 1 -11 -16
-58 -22 -92 -11 -18 6 -44 25 -57 41 l-23 30 -14 -26 c-7 -14 -17 -25 -22 -25
-5 0 1 13 13 29 21 29 23 76 5 126 -8 20 -7 20 8 1 16 -20 16 -20 31 0z m-235
-127 c0 -12 18 -63 40 -116 22 -52 42 -111 45 -131 4 -29 1 -25 -13 18 -11 30
-31 83 -45 117 -30 69 -50 146 -36 137 5 -3 9 -14 9 -25z m125 -43 c16 5 17 4
8 -6 -12 -14 -78 -6 -88 10 -3 5 8 5 27 -1 18 -5 42 -6 53 -3z m92 -179 c-2
-34 -3 -6 -3 63 0 69 1 97 3 62 2 -34 2 -90 0 -125z m120 117 c15 -14 14 -17
-4 -35 -19 -20 -19 -20 -37 0 -15 17 -16 22 -4 35 17 20 26 20 45 0z"/>
<path d="M94 399 c-10 -17 13 -36 27 -22 12 12 4 33 -11 33 -5 0 -12 -5 -16
-11z"/>
<path d="M422 169 c2 -6 8 -10 13 -10 5 0 11 4 13 10 2 6 -4 11 -13 11 -9 0
-15 -5 -13 -11z"/>
</g>
</svg>
