<?xml version="1.0" encoding="UTF-8"?>
<svg xmlns="http://www.w3.org/2000/svg" width="44" height="36" viewBox="0 0 44 36" fill="none">
  <path d="M22.5 36L21.5 16.1L14.05 13.5H0V10.5H12.15L25.9 0.65L27.85 2.95L20.4 8.3L25.25 10L42.25 0L44 2.1L26.7 14.65L25.5 36H22.5ZM10 7.65C9 7.65 8.14167 7.29167 7.425 6.575C6.70833 5.85833 6.35 5 6.35 4C6.35 3 6.70833 2.14167 7.425 1.425C8.14167 0.708334 9 0.35 10 0.35C11 0.35 11.8583 0.708334 12.575 1.425C13.2917 2.14167 13.65 3 13.65 4C13.65 5 13.2917 5.85833 12.575 6.575C11.8583 7.29167 11 7.65 10 7.65Z" fill="#FF88EB"></path>
</svg>
