<?xml version="1.0" encoding="UTF-8"?>
<svg xmlns="http://www.w3.org/2000/svg" width="24" height="34" viewBox="0 0 24 34" fill="none">
  <path d="M22.1818 11.3333C21.1782 11.3333 20.3636 12.1267 20.3636 13.1042V21.25H19.6364C17.2364 21.25 15.2727 23.1625 15.2727 25.5H13.8182C13.8182 22.61 16.0436 20.23 18.9091 19.8758V4.60417C18.9091 3.62667 18.0945 2.83333 17.0909 2.83333C16.0873 2.83333 15.2727 3.62667 15.2727 4.60417V15.5833H13.8182V1.77083C13.8182 0.793333 13.0036 0 12 0C10.9964 0 10.1818 0.793333 10.1818 1.77083V15.5833H8.72727V3.89583C8.72727 2.91833 7.91273 2.125 6.90909 2.125C5.90545 2.125 5.09091 2.91833 5.09091 3.89583V17H3.63636V8.14583C3.63636 7.16833 2.82182 6.375 1.81818 6.375C0.814545 6.375 0 7.16833 0 8.14583V22.3125C0 28.7725 5.36727 34 12 34C18.6327 34 24 28.7725 24 22.3125V13.1042C24 12.1267 23.1855 11.3333 22.1818 11.3333Z" fill="#FF88EB"></path>
</svg>
