<?xml version="1.0" encoding="UTF-8"?>
<svg xmlns="http://www.w3.org/2000/svg" width="25" height="31" viewBox="0 0 25 31" fill="none">
  <path d="M16.9375 22.103C21.6563 22.9865 25 25.2495 25 27.9V31H0V27.9C0 25.2495 3.34375 22.9865 8.0625 22.103L12.5 29.45L16.9375 22.103ZM6.25 9.3H18.75V12.4C18.75 14.0443 18.0915 15.6213 16.9194 16.7841C15.7473 17.9468 14.1576 18.6 12.5 18.6C10.8424 18.6 9.25268 17.9468 8.08058 16.7841C6.90848 15.6213 6.25 14.0443 6.25 12.4V9.3ZM6.25 7.75L6.89062 1.395C6.96875 0.6045 7.64062 0 8.45312 0H16.5625C17.3594 0 18.0313 0.6045 18.1094 1.395L18.75 7.75H6.25ZM12.5 1.55H10.9375V3.1H9.375V4.65H10.9375V6.2H12.5V4.65H14.0625V3.1H12.5V1.55Z" fill="#FF88EB"></path>
</svg>
