<?xml version="1.0" encoding="UTF-8"?>
<svg xmlns="http://www.w3.org/2000/svg" width="35" height="32" viewBox="0 0 35 32" fill="none">
  <path d="M14.0048 0L10.5097 3.55556V7.11111H5.26693C3.25721 7.11111 1.98147 8.88889 1.77176 10.6667L0.0241814 28.4444C-0.185528 30.2222 0.967876 32 3.51935 32H31.4807C34.0321 32 35.1855 30.2222 34.9758 28.4444L33.2282 10.6667C33.0185 8.88889 31.5855 7.11111 29.7331 7.11111H24.4903V3.55556L20.9952 0H14.0048ZM14.0048 3.55556H20.9952V7.11111H14.0048V3.55556ZM15.7524 12.4444H19.2476V17.7778H24.4903V21.3333H19.2476V26.6667H15.7524V21.3333H10.5097V17.7778H15.7524V12.4444Z" fill="#FF88EB"></path>
</svg>
