<svg width="27" height="26" viewBox="0 0 27 26" fill="none" xmlns="http://www.w3.org/2000/svg">
<g id="Group">
<path id="Vector" d="M13.4897 2.27939C16.8858 2.27939 17.288 2.29422 18.6236 2.35356C19.8648 2.40794 20.5351 2.61561 20.982 2.78867C21.5728 3.01611 21.9998 3.293 22.4417 3.73306C22.8885 4.17806 23.1616 4.59833 23.39 5.18672C23.5638 5.63172 23.7723 6.30417 23.8269 7.53533C23.8865 8.87033 23.9014 9.27084 23.9014 12.6479C23.9014 16.0299 23.8865 16.4304 23.8269 17.7605C23.7723 18.9966 23.5638 19.6641 23.39 20.1091C23.1616 20.6975 22.8836 21.1227 22.4417 21.5627C21.9948 22.0077 21.5728 22.2797 20.982 22.5071C20.5351 22.6802 19.8599 22.8878 18.6236 22.9422C17.283 23.0016 16.8808 23.0164 13.4897 23.0164C10.0936 23.0164 9.69144 23.0016 8.35584 22.9422C7.11458 22.8878 6.44429 22.6802 5.99744 22.5071C5.4066 22.2797 4.97961 22.0028 4.53772 21.5627C4.09086 21.1177 3.81778 20.6975 3.58939 20.1091C3.41562 19.6641 3.20708 18.9916 3.15247 17.7605C3.09289 16.4254 3.07799 16.0249 3.07799 12.6479C3.07799 9.26589 3.09289 8.86539 3.15247 7.53533C3.20708 6.29922 3.41562 5.63172 3.58939 5.18672C3.81778 4.59833 4.09583 4.17311 4.53772 3.73306C4.98457 3.28806 5.4066 3.01611 5.99744 2.78867C6.44429 2.61561 7.11954 2.40794 8.35584 2.35356C9.69144 2.29422 10.0936 2.27939 13.4897 2.27939ZM13.4897 0C10.039 0 9.60703 0.0148333 8.25157 0.0741667C6.90108 0.1335 5.97262 0.351056 5.16828 0.662556C4.32918 0.988889 3.61918 1.41906 2.91415 2.12611C2.20414 2.82822 1.77218 3.53528 1.44449 4.36595C1.13169 5.17189 0.913231 6.09156 0.853651 7.43645C0.79407 8.79122 0.779175 9.22139 0.779175 12.6578C0.779175 16.0942 0.79407 16.5243 0.853651 17.8742C0.913231 19.2191 1.13169 20.1437 1.44449 20.9447C1.77218 21.7803 2.20414 22.4873 2.91415 23.1894C3.61918 23.8916 4.32918 24.3267 5.16331 24.6481C5.97262 24.9596 6.89611 25.1771 8.24661 25.2365C9.60207 25.2958 10.034 25.3106 13.4847 25.3106C16.9354 25.3106 17.3674 25.2958 18.7229 25.2365C20.0734 25.1771 21.0018 24.9596 21.8062 24.6481C22.6403 24.3267 23.3503 23.8916 24.0553 23.1894C24.7604 22.4873 25.1973 21.7803 25.52 20.9496C25.8328 20.1437 26.0513 19.224 26.1108 17.8791C26.1704 16.5293 26.1853 16.0991 26.1853 12.6627C26.1853 9.22634 26.1704 8.79617 26.1108 7.44634C26.0513 6.10145 25.8328 5.17683 25.52 4.37583C25.2072 3.53528 24.7753 2.82822 24.0653 2.12611C23.3602 1.424 22.6502 0.988889 21.8161 0.6675C21.0068 0.356 20.0833 0.138444 18.7328 0.0791111C17.3724 0.0148333 16.9404 0 13.4897 0Z" fill="white"/>
<path id="Vector_2" d="M13.4897 6.15576C9.88511 6.15576 6.96069 9.06804 6.96069 12.6577C6.96069 16.2474 9.88511 19.1597 13.4897 19.1597C17.0944 19.1597 20.0188 16.2474 20.0188 12.6577C20.0188 9.06804 17.0944 6.15576 13.4897 6.15576ZM13.4897 16.8753C11.1512 16.8753 9.25455 14.9865 9.25455 12.6577C9.25455 10.3289 11.1512 8.4401 13.4897 8.4401C15.8283 8.4401 17.7249 10.3289 17.7249 12.6577C17.7249 14.9865 15.8283 16.8753 13.4897 16.8753Z" fill="white"/>
<path id="Vector_3" d="M21.8012 5.89856C21.8012 6.73912 21.116 7.41651 20.277 7.41651C19.4329 7.41651 18.7527 6.73417 18.7527 5.89856C18.7527 5.05801 19.4379 4.38062 20.277 4.38062C21.116 4.38062 21.8012 5.06295 21.8012 5.89856Z" fill="white"/>
</g>
</svg>
