<svg width="23" height="18" viewBox="0 0 23 18" fill="none" xmlns="http://www.w3.org/2000/svg">
<g id="Group">
<path id="Vector" d="M4.2322 17.5522V16.3836C4.23909 16.2853 4.22485 16.1867 4.19044 16.0943C4.15602 16.0019 4.10223 15.9179 4.03265 15.8479C3.96306 15.7778 3.87928 15.7234 3.78689 15.6881C3.6945 15.6529 3.59563 15.6377 3.49687 15.6435C3.36762 15.6351 3.23846 15.6614 3.12289 15.7196C3.00731 15.7779 2.90953 15.8659 2.83975 15.9746C2.77615 15.8692 2.68518 15.7828 2.57642 15.7245C2.46766 15.6662 2.34513 15.6382 2.22174 15.6435C2.11419 15.6381 2.00708 15.6608 1.91103 15.7093C1.81499 15.7578 1.73333 15.8305 1.67414 15.9201V15.6903H1.26733V17.5522H1.67803V16.5199C1.66915 16.4562 1.67455 16.3913 1.69383 16.33C1.71312 16.2686 1.74581 16.2122 1.78956 16.1649C1.83331 16.1177 1.88704 16.0806 1.94688 16.0564C2.00673 16.0323 2.07121 16.0216 2.13568 16.0252C2.40557 16.0252 2.54248 16.2005 2.54248 16.516V17.5522H2.95318V16.5199C2.94497 16.4563 2.95083 16.3917 2.97036 16.3306C2.98989 16.2696 3.02261 16.2135 3.06623 16.1663C3.10984 16.1192 3.16329 16.0821 3.22282 16.0578C3.28235 16.0334 3.34652 16.0223 3.41082 16.0252C3.68852 16.0252 3.8215 16.2005 3.8215 16.516V17.5522H4.2322ZM10.3106 15.6903H9.64564V15.1254H9.23495V15.6903H8.85552V16.0603H9.23495V16.9094C9.23495 17.3418 9.40314 17.5989 9.88423 17.5989C10.064 17.5994 10.2402 17.5495 10.3927 17.4548L10.2754 17.1081C10.1663 17.1729 10.0425 17.2091 9.91553 17.2133C9.71213 17.2133 9.64564 17.0886 9.64564 16.9017V16.0603H10.3106V15.6903ZM13.78 15.6435C13.6808 15.6406 13.5827 15.6644 13.496 15.7124C13.4092 15.7604 13.3371 15.8308 13.2872 15.9162V15.6903H12.8843V17.5522H13.2911V16.5082C13.2911 16.2005 13.4241 16.0291 13.6901 16.0291C13.7771 16.0279 13.8635 16.0438 13.9443 16.0759L14.0695 15.6941C13.9766 15.661 13.8787 15.6439 13.78 15.6435ZM8.5348 15.8382C8.30454 15.7019 8.03979 15.6343 7.77206 15.6435C7.29877 15.6435 6.9937 15.8694 6.9937 16.2394C6.9937 16.5433 7.22055 16.7303 7.63905 16.7887L7.83072 16.8159C8.05367 16.8471 8.15929 16.9055 8.15929 17.0107C8.15929 17.1548 8.01063 17.2366 7.73294 17.2366C7.50956 17.243 7.29051 17.1744 7.11102 17.0419L6.91937 17.3574C7.15631 17.5222 7.44013 17.6068 7.72903 17.5989C8.26881 17.5989 8.5817 17.3457 8.5817 16.9912C8.5817 16.664 8.33531 16.4926 7.92852 16.4342L7.73688 16.4069C7.56084 16.3836 7.42004 16.3485 7.42004 16.2239C7.42004 16.0876 7.55299 16.0057 7.77597 16.0057C7.98071 16.0088 8.18129 16.0638 8.35878 16.1654L8.5348 15.8382ZM19.432 15.6435C19.3329 15.6406 19.2347 15.6644 19.148 15.7124C19.0613 15.7604 18.9891 15.8308 18.9392 15.9162V15.6903H18.5363V17.5522H18.9431V16.5082C18.9431 16.2005 19.0761 16.0291 19.3421 16.0291C19.4291 16.0279 19.5155 16.0438 19.5963 16.0759L19.7215 15.6941C19.6286 15.661 19.5307 15.6439 19.432 15.6435ZM14.1907 16.6212C14.1853 16.7523 14.2075 16.8832 14.256 17.0053C14.3044 17.1274 14.3779 17.238 14.4719 17.3301C14.5658 17.4222 14.6781 17.4937 14.8015 17.54C14.9248 17.5863 15.0565 17.6064 15.1882 17.5989C15.4324 17.6111 15.6724 17.5319 15.8609 17.3768L15.6653 17.0496C15.5247 17.1564 15.3532 17.2151 15.1764 17.2171C15.024 17.2079 14.8808 17.1411 14.7761 17.0304C14.6715 16.9196 14.6132 16.7733 14.6132 16.6212C14.6132 16.4691 14.6715 16.3227 14.7761 16.212C14.8808 16.1012 15.024 16.0344 15.1764 16.0252C15.3532 16.0272 15.5247 16.086 15.6653 16.1927L15.8609 15.8655C15.6723 15.7105 15.4324 15.6313 15.1882 15.6435C15.0565 15.636 14.9248 15.6561 14.8015 15.7024C14.6781 15.7487 14.5659 15.8202 14.4719 15.9122C14.378 16.0043 14.3044 16.115 14.256 16.2371C14.2075 16.3592 14.1853 16.49 14.1907 16.6212ZM18.0005 16.6212V15.6903H17.5937V15.9162C17.5242 15.8271 17.4344 15.7558 17.3316 15.7084C17.2289 15.6609 17.1162 15.6387 17.003 15.6435C16.751 15.6558 16.5133 15.7642 16.3393 15.9462C16.1653 16.1282 16.0682 16.3699 16.0682 16.6212C16.0682 16.8725 16.1653 17.1142 16.3393 17.2962C16.5133 17.4782 16.751 17.5866 17.003 17.5989C17.1162 17.6037 17.2289 17.5815 17.3316 17.534C17.4344 17.4866 17.5242 17.4153 17.5937 17.3262V17.5522H18.0005V16.6212ZM16.4867 16.6212C16.493 16.5113 16.5315 16.4057 16.5974 16.3173C16.6632 16.2289 16.7536 16.1617 16.8574 16.1239C16.9612 16.0861 17.0738 16.0793 17.1814 16.1045C17.289 16.1297 17.3868 16.1857 17.4628 16.2655C17.5389 16.3454 17.5897 16.4457 17.6092 16.554C17.6287 16.6624 17.6159 16.774 17.5724 16.8752C17.5289 16.9763 17.4567 17.0626 17.3645 17.1234C17.2724 17.1842 17.1644 17.2168 17.0539 17.2171C16.9765 17.2182 16.8996 17.2032 16.8282 17.1732C16.7569 17.1433 16.6925 17.0989 16.6392 17.0429C16.5859 16.9869 16.5449 16.9205 16.5186 16.8479C16.4924 16.7753 16.4815 16.6981 16.4867 16.6212ZM11.5779 15.6435C11.3242 15.6568 11.0856 15.7674 10.912 15.9521C10.7385 16.1369 10.6435 16.3814 10.647 16.6343C10.6506 16.8873 10.7524 17.129 10.931 17.3089C11.1097 17.4887 11.3513 17.5927 11.6053 17.5989C11.8843 17.6087 12.1573 17.5157 12.3719 17.3379L12.1724 17.038C12.018 17.1613 11.8267 17.2298 11.6287 17.2327C11.4943 17.244 11.3608 17.2027 11.2564 17.1176C11.152 17.0326 11.0849 16.9104 11.0694 16.777H12.458C12.4619 16.7264 12.4658 16.6757 12.4658 16.6212C12.4619 16.0408 12.102 15.6435 11.5779 15.6435ZM11.5701 16.0057C11.6929 16.0034 11.8117 16.0496 11.9005 16.1343C11.9892 16.219 12.0406 16.3352 12.0433 16.4576H11.0733C11.0805 16.3326 11.1364 16.2153 11.2293 16.1309C11.3221 16.0465 11.4444 16.0015 11.5701 16.0057ZM21.775 16.6212V14.9424H21.3682V15.9162C21.2988 15.8271 21.2089 15.7558 21.1062 15.7084C21.0034 15.6609 20.8907 15.6387 20.7776 15.6435C20.5255 15.6558 20.2879 15.7642 20.1138 15.9462C19.9398 16.1282 19.8427 16.3699 19.8427 16.6212C19.8427 16.8725 19.9398 17.1142 20.1138 17.2962C20.2879 17.4782 20.5255 17.5866 20.7776 17.5989C20.8907 17.6037 21.0034 17.5815 21.1062 17.534C21.2089 17.4866 21.2988 17.4153 21.3682 17.3262V17.5522H21.775V16.6212ZM22.4531 17.2823C22.4784 17.2821 22.5034 17.2871 22.5267 17.2968C22.5491 17.3062 22.5695 17.3196 22.5868 17.3365C22.604 17.3534 22.6178 17.3734 22.6273 17.3955C22.6371 17.4182 22.6421 17.4426 22.6421 17.4673C22.6421 17.492 22.6371 17.5164 22.6273 17.5391C22.6177 17.561 22.604 17.581 22.5868 17.5978C22.5694 17.6147 22.549 17.6282 22.5267 17.6377C22.5034 17.6476 22.4784 17.6526 22.4531 17.6525C22.4159 17.6528 22.3794 17.6423 22.3482 17.6221C22.3169 17.6019 22.2924 17.5731 22.2775 17.5391C22.2678 17.5164 22.2627 17.492 22.2627 17.4673C22.2627 17.4426 22.2678 17.4182 22.2775 17.3955C22.2871 17.3734 22.3008 17.3534 22.3179 17.3365C22.3352 17.3195 22.3557 17.306 22.3782 17.2968C22.4019 17.2871 22.4274 17.2821 22.4531 17.2823ZM22.4531 17.6116C22.4724 17.6118 22.4915 17.6079 22.5092 17.6003C22.5261 17.5929 22.5416 17.5825 22.5547 17.5694C22.5817 17.5423 22.5968 17.5056 22.5968 17.4674C22.5968 17.4291 22.5817 17.3925 22.5547 17.3653C22.5416 17.3523 22.5262 17.3419 22.5092 17.3347C22.4914 17.3272 22.4723 17.3234 22.4531 17.3236C22.4335 17.3234 22.4141 17.3272 22.3959 17.3347C22.3787 17.3418 22.363 17.3522 22.3497 17.3653C22.3227 17.3925 22.3075 17.4291 22.3075 17.4674C22.3075 17.5056 22.3227 17.5423 22.3497 17.5694C22.363 17.5826 22.3787 17.5931 22.3959 17.6003C22.414 17.6079 22.4335 17.6118 22.4531 17.6116ZM22.464 17.3807C22.4823 17.3795 22.5005 17.3848 22.5153 17.3955C22.5212 17.4003 22.5259 17.4065 22.529 17.4135C22.5321 17.4204 22.5336 17.428 22.5333 17.4356C22.5335 17.4422 22.5323 17.4487 22.5298 17.4547C22.5274 17.4608 22.5237 17.4662 22.5189 17.4708C22.5076 17.4808 22.4933 17.4868 22.4782 17.4878L22.5346 17.5526H22.4905L22.4381 17.4882H22.4212V17.5526H22.3843V17.3807H22.464ZM22.4212 17.413V17.4588H22.4636C22.4717 17.4592 22.4798 17.4572 22.4868 17.4531C22.4897 17.4512 22.492 17.4486 22.4935 17.4455C22.495 17.4424 22.4957 17.439 22.4955 17.4356C22.4957 17.4323 22.495 17.429 22.4934 17.426C22.4919 17.423 22.4896 17.4204 22.4868 17.4186C22.4798 17.4145 22.4717 17.4126 22.4636 17.413H22.4212ZM20.2613 16.6212C20.2676 16.5113 20.3061 16.4057 20.3719 16.3173C20.4378 16.229 20.5282 16.1617 20.632 16.1239C20.7358 16.0861 20.8484 16.0794 20.956 16.1046C21.0635 16.1298 21.1614 16.1857 21.2374 16.2656C21.3134 16.3455 21.3643 16.4458 21.3837 16.5541C21.4032 16.6624 21.3904 16.774 21.3469 16.8752C21.3034 16.9764 21.2312 17.0627 21.139 17.1234C21.0469 17.1842 20.9389 17.2168 20.8284 17.2171C20.751 17.2182 20.6741 17.2032 20.6028 17.1732C20.5314 17.1432 20.467 17.0988 20.4138 17.0429C20.3605 16.9869 20.3194 16.9205 20.2932 16.8479C20.2669 16.7753 20.2561 16.6981 20.2613 16.6212ZM6.52432 16.6212V15.6903H6.11751V15.9162C6.04808 15.8271 5.95823 15.7558 5.85547 15.7084C5.75271 15.6609 5.64004 15.6387 5.52688 15.6435C5.27482 15.6558 5.03717 15.7642 4.86315 15.9462C4.68913 16.1282 4.59207 16.3699 4.59207 16.6212C4.59207 16.8725 4.68913 17.1142 4.86315 17.2962C5.03717 17.4782 5.27482 17.5866 5.52688 17.5989C5.64004 17.6037 5.75271 17.5815 5.85547 17.534C5.95823 17.4866 6.04808 17.4153 6.11751 17.3262V17.5522H6.52432V16.6212ZM5.0106 16.6212C5.01692 16.5113 5.05539 16.4057 5.12126 16.3173C5.18714 16.229 5.27754 16.1617 5.38132 16.1239C5.4851 16.0861 5.59772 16.0794 5.70529 16.1046C5.81286 16.1298 5.91069 16.1857 5.9867 16.2656C6.06271 16.3455 6.11358 16.4458 6.13304 16.5541C6.15251 16.6624 6.13971 16.774 6.09622 16.8752C6.05274 16.9764 5.98048 17.0627 5.88835 17.1234C5.79622 17.1842 5.68824 17.2168 5.57774 17.2171C5.50029 17.2182 5.42345 17.2032 5.35209 17.1732C5.28072 17.1432 5.21637 17.0988 5.16309 17.0429C5.10981 16.9869 5.06875 16.9205 5.04251 16.8479C5.01626 16.7753 5.0054 16.6981 5.0106 16.6212Z" fill="white"/>
<g id="Group_2">
<path id="Vector_2" d="M14.563 1.49976H8.40161V12.5259H14.563V1.49976Z" fill="#FF5F00"/>
<path id="Vector_3" d="M8.79146 7.01355C8.79048 5.95165 9.03212 4.90345 9.49808 3.9483C9.96403 2.99314 10.6421 2.15607 11.4809 1.50046C10.4421 0.687347 9.19461 0.181686 7.8809 0.0412695C6.56719 -0.0991471 5.24031 0.131348 4.05192 0.706409C2.86354 1.28147 1.86159 2.17789 1.16061 3.29322C0.459627 4.40855 0.0878906 5.69778 0.0878906 7.01355C0.0878906 8.32932 0.459627 9.61856 1.16061 10.7339C1.86159 11.8492 2.86354 12.7456 4.05192 13.3207C5.24031 13.8958 6.56719 14.1263 7.8809 13.9858C9.19461 13.8454 10.4421 13.3398 11.4809 12.5266C10.6421 11.871 9.96404 11.034 9.49808 10.0788C9.03213 9.12366 8.79049 8.07545 8.79146 7.01355Z" fill="#EB001B"/>
<path id="Vector_4" d="M22.8751 7.01233C22.8751 8.32808 22.5035 9.61731 21.8025 10.7326C21.1016 11.848 20.0997 12.7444 18.9113 13.3195C17.7229 13.8945 16.3961 14.125 15.0824 13.9846C13.7687 13.8442 12.5212 13.3385 11.4824 12.5254C12.3205 11.8691 12.998 11.0319 13.4639 10.0769C13.9298 9.12194 14.1719 8.07406 14.1719 7.01233C14.1719 5.95059 13.9298 4.90272 13.4639 3.94772C12.998 2.99272 12.3205 2.15551 11.4824 1.49924C12.5212 0.686124 13.7687 0.180462 15.0824 0.0400476C16.3961 -0.100367 17.7229 0.130132 18.9113 0.705199C20.0997 1.28027 21.1016 2.17669 21.8025 3.29202C22.5035 4.40735 22.8751 5.69657 22.8751 7.01233Z" fill="#F79E1B"/>
<path id="Vector_5" d="M22.2029 11.3588V11.1331H22.2942V11.0871H22.0618V11.1331H22.1531V11.3588H22.2029ZM22.6541 11.3588V11.0867H22.5829L22.5009 11.2739L22.419 11.0867H22.3477V11.3588H22.398V11.1535L22.4748 11.3305H22.527L22.6038 11.1531V11.3588H22.6541Z" fill="#F79E1B"/>
</g>
</g>
</svg>
