<svg width="26" height="26" viewBox="0 0 26 26" fill="none" xmlns="http://www.w3.org/2000/svg">
<path id="Subtract" fill-rule="evenodd" clip-rule="evenodd" d="M25.6647 12.6578C25.6647 19.6485 19.974 25.3156 12.9542 25.3156C5.93435 25.3156 0.243652 19.6485 0.243652 12.6578C0.243652 5.66708 5.93435 0 12.9542 0C19.974 0 25.6647 5.66708 25.6647 12.6578ZM13.4097 9.34467C12.1734 9.85675 9.70254 10.9166 5.99717 12.5243C5.39547 12.7626 5.08028 12.9957 5.05159 13.2236C5.00309 13.6088 5.4875 13.7605 6.14713 13.9671C6.23686 13.9952 6.32983 14.0243 6.42514 14.0551C7.07411 14.2652 7.9471 14.511 8.40094 14.5208C8.8126 14.5296 9.27207 14.3606 9.77934 14.0137C13.2414 11.6864 15.0285 10.5101 15.1407 10.4848C15.2199 10.4669 15.3296 10.4444 15.4039 10.5101C15.4782 10.5759 15.4709 10.7005 15.463 10.7339C15.415 10.9377 13.5136 12.6981 12.5296 13.6091C12.2228 13.8931 12.0052 14.0946 11.9607 14.1406C11.8611 14.2437 11.7595 14.3412 11.6619 14.4349C11.059 15.0137 10.6069 15.4477 11.6869 16.1565C12.206 16.4971 12.6213 16.7788 13.0357 17.0598C13.4882 17.3667 13.9395 17.6728 14.5235 18.054C14.6723 18.1511 14.8144 18.252 14.9528 18.3503C15.4794 18.7241 15.9525 19.06 16.537 19.0065C16.8767 18.9753 17.2275 18.6573 17.4057 17.7087C17.8268 15.467 18.6544 10.6099 18.8457 8.60845C18.8625 8.4331 18.8414 8.20867 18.8245 8.11016C18.8075 8.01164 18.7722 7.87128 18.6436 7.76737C18.4913 7.64431 18.2562 7.61836 18.151 7.62021C17.673 7.62859 16.9395 7.88257 13.4097 9.34467Z" fill="white"/>
</svg>
