<svg width="39" height="13" viewBox="0 0 39 13" fill="none" xmlns="http://www.w3.org/2000/svg">
<g id="g10">
<g id="g12">
<path id="path14" d="M17.0672 12.7952H13.9622L15.9029 0.917958H19.0081L17.0672 12.7952Z" fill="white"/>
<path id="path16" d="M11.3497 0.917958L8.38941 9.08699L8.03921 7.32784L8.0396 7.32844L6.99453 1.98772C6.99453 1.98772 6.86842 0.917958 5.52153 0.917958H0.62813L0.570801 1.11887C0.570801 1.11887 2.06773 1.42889 3.81861 2.47692L6.51638 12.7952H9.75149L14.6918 0.917958H11.3497Z" fill="white"/>
<path id="path18" d="M32.356 8.59366L33.9878 4.14882L34.9057 8.59366H32.356ZM35.7728 12.7952H38.6239L36.1381 0.917958H33.6417C32.4887 0.917958 32.2083 1.80304 32.2083 1.80304L27.5776 12.7952H30.8139L31.4615 11.031H35.4088L35.7728 12.7952Z" fill="white"/>
<path id="path20" d="M27.8205 3.77461L28.2635 1.22369C28.2635 1.22369 26.896 0.705809 25.4708 0.705809C23.9299 0.705809 20.2707 1.37695 20.2707 4.63775C20.2707 7.70643 24.5654 7.74464 24.5654 9.35574C24.5654 10.967 20.7135 10.679 19.4423 9.66264L18.9802 12.3289C18.9802 12.3289 20.3666 13 22.4854 13C24.6041 13 27.8012 11.907 27.8012 8.9338C27.8012 5.8459 23.4678 5.55822 23.4678 4.21581C23.4678 2.87301 26.4917 3.04539 27.8205 3.77461Z" fill="white"/>
<path id="path22" d="M8.0396 7.3291L6.99453 1.98838C6.99453 1.98838 6.86842 0.918616 5.52153 0.918616H0.62813L0.570801 1.11953C0.570801 1.11953 2.92297 1.60514 5.17957 3.42385C7.33599 5.16215 8.0396 7.3291 8.0396 7.3291Z" fill="white"/>
</g>
</g>
</svg>
